<?xml version='1.0' encoding='utf-8'?>
<svg xmlns:xlink="http://www.w3.org/1999/xlink" xmlns="http://www.w3.org/2000/svg" viewBox="0 0 480 640"> <defs> <linearGradient id="a"> <stop stop-color="#b1b1b1" offset="0"/> <stop stop-color="#eff2f4" offset=".5"/> <stop stop-color="#d3d3d3" offset=".75"/> <stop stop-color="#fff" offset="1"/> </linearGradient> <linearGradient id="b"> <stop stop-color="#e0e6f0" offset="0"/> <stop stop-color="#f4f6fa" offset=".5"/> <stop stop-color="#cbd6e5" offset="1"/> </linearGradient> <linearGradient id="f" x1="273.36" x2="513.16" y1="165.57" y2="111.53" gradientTransform="matrix(.034144 -.82734 -.61454 -.025362 342.05 437.03)" gradientUnits="userSpaceOnUse"> <stop stop-color="#316de5" offset="0"/> <stop stop-color="#a3d1f7" offset="1"/> </linearGradient> <linearGradient id="r" x1="249.12" x2="526.8" y1="249.85" y2="159.44" gradientTransform="matrix(.034144 -.82734 -.61454 -.025362 342.05 437.03)" gradientUnits="userSpaceOnUse"> <stop stop-color="#3060dd" offset="0"/> <stop stop-color="#78c0e7" offset="1"/> </linearGradient> <linearGradient id="q" x1="574.04" x2="227.91" y1="184.94" y2="176.36" gradientTransform="matrix(.034144 -.82734 -.82734 -.034144 381.24 438.65)" gradientUnits="userSpaceOnUse"> <stop stop-color="#4e72cf" offset="0"/> <stop stop-color="#6495ed" offset="1"/> </linearGradient> <linearGradient id="p" x1="548.02" x2="211.16" y1="189.06" y2="228.81" gradientTransform="matrix(.034599 -.83836 -.8863 -.036578 391.16 443.17)" gradientUnits="userSpaceOnUse"> <stop stop-color="#94a9cc" offset="0"/> <stop stop-color="#e8ecf5" offset=".5"/> <stop stop-color="#c4d2e2" offset="1"/> </linearGradient> <linearGradient id="o" x1="489.74" x2="479.73" y1="216.18" y2="488.47" gradientTransform="matrix(.034144 -.82734 -.82734 -.034144 358.08 437.7)" gradientUnits="userSpaceOnUse"> <stop stop-color="#fff" offset="0"/> <stop stop-color="#fff" stop-opacity="0" offset="1"/> </linearGradient> <linearGradient id="n" x1="280.62" x2="310.53" y1="485.78" y2="589.82" gradientTransform="matrix(.032475 -.7869 -.70332 -.029026 288.12 419.74)" gradientUnits="userSpaceOnUse" spreadMethod="reflect" xlink:href="#b"/> <linearGradient id="m" x1="565.69" x2="196.97" y1="394.45" y2="404.45" gradientTransform="matrix(.034144 -.82734 -.82734 -.034144 358.08 437.7)" gradientUnits="userSpaceOnUse" xlink:href="#b"/> <linearGradient id="e" x1="841.96" x2="878.83" y1="189.88" y2="110.58" gradientUnits="userSpaceOnUse" spreadMethod="reflect" xlink:href="#a"/> <linearGradient id="d" x1="885.91" x2="939.73" y1="120.16" y2="162.59" gradientUnits="userSpaceOnUse" spreadMethod="reflect" xlink:href="#a"/> <linearGradient id="c" x1="848.14" x2="904.66" y1="125.6" y2="90.245" gradientUnits="userSpaceOnUse" spreadMethod="repeat" xlink:href="#a"/> <linearGradient id="l" x1="832.63" x2="869.5" y1="198.85" y2="119.55" gradientUnits="userSpaceOnUse" spreadMethod="reflect" xlink:href="#a"/> <linearGradient id="k" x1="876.57" x2="930.4" y1="129.13" y2="171.56" gradientUnits="userSpaceOnUse" spreadMethod="reflect" xlink:href="#a"/> <linearGradient id="j" x1="838.8" x2="913.66" y1="134.57" y2="89.879" gradientUnits="userSpaceOnUse" spreadMethod="repeat" xlink:href="#a"/> <linearGradient id="i" x1="841.96" x2="878.83" y1="189.88" y2="110.58" gradientTransform="matrix(.74921 -.77994 .77994 .74921 -522.98 749.27)" gradientUnits="userSpaceOnUse" spreadMethod="reflect" xlink:href="#a"/> <linearGradient id="h" x1="885.91" x2="939.73" y1="120.16" y2="162.59" gradientTransform="matrix(-.04699 -1.1687 1.1687 -.04699 -330.42 1718.5)" gradientUnits="userSpaceOnUse" spreadMethod="reflect" xlink:href="#a"/> <linearGradient id="g" x1="848.14" x2="923" y1="125.6" y2="80.911" gradientTransform="matrix(.74921 -.77994 .77994 .74921 -522.98 749.27)" gradientUnits="userSpaceOnUse" spreadMethod="repeat" xlink:href="#a"/> </defs> <g transform="matrix(-.089446 -1.3682 1.3682 -.089446 91.019 452.68)" fill-rule="evenodd"> <path d="m204.21-42.143c-93.485 5.7977-174.72 6.2905-268.27 13.52-25.855 1.9981-44.009 42.361-50.217 69.276-12.229 53.019-13.739 109.44 1.0024 161.8 5.9145 21.008 15.937 47.451 40.205 50.778 85.761 11.757 173.58 19.028 259.1 32.282 21.219 3.2882 54.801 8.4689 65.17 2.3391 17.722-10.476 28.577-41.571 34.445-65.087 16.353-65.533 19.267-135.33 5.9533-201.8-4.3616-21.778-11.467-52.02-29.974-60.063-14.223-6.1818-42.085-3.9947-57.421-3.0436z"/> <path d="m265.81 125.54c-3.6498 88.436-26.256 159.41-60.648 157.99-5.485-0.22637-15.76-3.4216-15.76-3.4216s-4.768-1.5694-7.2344-1.6712c-1.0468-0.03505-2.0833-0.1969-3.1198-0.33594l-249.19-30.796c-29.064-1.1995-50.136-62.837-47.052-137.57s29.163-134.4 58.227-133.2l250.88-10.158c1.0443-0.07563 2.0912-0.08695 3.1369-0.07773 2.4664 0.10179 7.3475-1.0694 7.3475-1.0694s10.504-2.3376 15.989-2.1113c34.392 1.4194 51.074 73.988 47.425 162.42z" fill="url(#m)"/> <path d="m-64.554-17.072c-24.707-1.0197-47.14 55.842-50.074 126.92s14.738 129.6 39.445 130.62 47.14-55.842 50.074-126.92-14.738-129.6-39.445-130.62z" fill="url(#n)" opacity=".6"/> <g opacity=".5"> <g transform="matrix(.97122 .01609 -.01609 .97122 -868.85 8.3961)"> <path d="m857.22 63.562c-7.303-0.51727-10.402-3.3959-12.379 9.2355-24.415-0.75364-26.873 1.4929-30.755 29.86 2.4578 3.4007 0.78396 7.9485-3.2749 10.35-8.458-4.8974-12.303 2.1048-13.149 9.8828-2.588 8.425-6.0241 16.704-7.7151 25.336 0.66535 6.9332 10.595-0.92051 5.9119 8.072-2.542 7.4292 0.47443 16.922 6.4372 22.351-1.9352 9.1662 6.176 25.547 24.035 35.587 4.4016-1.71 3.098-12.505 6.7816-7.0067 5.5801 5.8798-5.2038 10.69-2.8648 17.676 7.1816 6.9503 20.098-2.964 29.014-3.1137 8.7063-2.5936 16.827-7.2541 24.513-12.429 8.995 13.908 18.55 16.763 24.671 8.3929 5.762-4.8341 12.572-8.7028 17.562-14.292 4.3794-9.1646-18.111-7.0553-6.6515-14.214 3.6382-6.3366 11.521 5.2123 13.947-4.0636 1.003-6.626-6.123-14.028-5.5015-20.765 3.3796-11.887 6.5811-23.795 7.6824-36.578 4.7407-5.1069 11.004-9.7422 13.818-16.144-1.483-10.065-20.976-1.5779-23.065-11.169-5.5412-6.4472-7.4704-17.358-6.1419-25.277 3.5382-9.3904-8.6743-10.269-11.494-1.4388-3.855 4.4053-4.0687 12.404-9.6561 12.932-8.9776 0.29228-7.6285-12.751-11.769-18.531-12.545 1.963-18.817 2.2491-29.956-4.6535z" fill="#959595" fill-opacity=".5098"/> <path d="m868.57 84.286-42.487 9.6339-17.518 36.08-0.36161 30.701 17.094 36.621 16.143 6.9598 27.125 12.875 0.34375-15.688 10.388 8.1741 28.201-22.509 6.5134-11.219 15.621-64.134-39.629-10.344-4.9821 9.7679-16.451-26.92z" fill="url(#e)"/> <path d="m884.28 72.129-23.219 7.75 1.8125-2.75-38.594 1.4375-5.7187 22.156 13.594 22.844 22.687-34.281 40.875 29.281 21.438-22.125-23.594-5-9.2813-19.312zm39.281 35-4.0313 19.344c-3.7485-2.3159-7.3553-4.4484-8.8125-5.0312l7.2188 12.75-1.0625 5.2188-16.156-13.688-16.438 20.719 13.594 15 6.4062-3.8125v9.5l-4.2812 10v15.875l-18.562-7.2812-2.875 12.844 20.719 20 22.156-17.125-15.688-6.1562 20.688-19.562-18.156-20.469 12.562-7.5 1.3125 15.094 8.5625-29.281-4.375-2.8125 17.938-19.312-20.719-4.3125zm-74.281 6.4375-0.7187 15 29.312 11.438 1.4062-15-30-11.438zm-44.281 2.875-10 30.688 11.438-4.5625-5 27.438 12.594 5.125-6.875 15.594 17.844 18.562 1.75-9.125 8.25 0.5625 16.437 20-12.875-39.281-10.938 14.25 3.8125-19.969-10.719-15.719-2.3437 5.2812-9.875-23.531 4.375-1.75 6.4062 14.281 20.719-26.438-26.781 5.0938-2.5-4.375 15.719-7.125-21.438-5zm114.91 21.25 0.0938 0.15625 0.4062 4.5625-2.7187-2.3125 2.2187-2.4062zm-75.625 10.156-10 24.281 17.156 7.875 19.281-12.156-26.438-20z" fill="url(#d)"/> <path d="m851.01 66.429v18.562l20 8.5938 12.844-12.875-32.844-14.281zm64.281 4.2812-24.281 37.156 18.562 5.7188 11.438-11.438-7.1563-12.875 1.4375-18.562zm-82.875 24.281-24.281 25.719 35.719 20 8.5625-32.844-12.844-11.438-7.1562-1.4375zm34.313 22.875-1.4375 15.719-8.5625 12.844 17.125 5.7188 8.5625-34.281h-15.688zm-60 27.125-8.5938 17.156 11.438 22.844 28.562 2.875v-18.594l-31.406-24.281zm117.13 1.4375-37.125 12.844 35.688 22.875 1.4375-35.719zm-42.844 17.156-22.875 21.406-25.719 37.156 44.313-11.438 4.2813-47.125z" fill="url(#c)"/> </g> <g transform="matrix(.72306 .05356 -.01108 .79677 -674.61 -96.139)"> <path d="m857.22 63.562c-7.303-0.51727-10.402-3.3959-12.379 9.2355-24.415-0.75364-26.873 1.4929-30.755 29.86 2.4578 3.4007 0.78396 7.9485-3.2749 10.35-8.458-4.8974-12.303 2.1048-13.149 9.8828-2.588 8.425-6.0241 16.704-7.7151 25.336 0.66535 6.9332 10.595-0.92051 5.9119 8.072-2.542 7.4292 0.47443 16.922 6.4372 22.351-1.9352 9.1662 6.176 25.547 24.035 35.587 4.4016-1.71 3.098-12.505 6.7816-7.0067 5.5801 5.8798-5.2038 10.69-2.8648 17.676 7.1816 6.9503 20.098-2.964 29.014-3.1137 8.7063-2.5936 16.827-7.2541 24.513-12.429 8.995 13.908 18.55 16.763 24.671 8.3929 5.762-4.8341 12.572-8.7028 17.562-14.292 4.3794-9.1646-18.111-7.0553-6.6515-14.214 3.6382-6.3366 11.521 5.2123 13.947-4.0636 1.003-6.626-6.123-14.028-5.5015-20.765 3.3796-11.887 6.5811-23.795 7.6824-36.578 4.7407-5.1069 11.004-9.7422 13.818-16.144-1.483-10.065-20.976-1.5779-23.065-11.169-5.5412-6.4472-7.4704-17.358-6.1419-25.277 3.5382-9.3904-8.6743-10.269-11.494-1.4388-3.855 4.4053-4.0687 12.404-9.6561 12.932-8.9776 0.29228-7.6285-12.751-11.769-18.531-12.545 1.963-18.817 2.2491-29.956-4.6535z" fill="#959595" fill-opacity=".5098"/> <path d="m868.57 84.286-42.487 9.6339-17.518 36.08-0.36161 30.701 17.094 36.621 16.143 6.9598 27.125 12.875 0.34375-15.688 10.388 8.1741 28.201-22.509 6.5134-11.219 15.621-64.134-39.629-10.344-4.9821 9.7679-16.451-26.92z" fill="url(#e)"/> <path d="m884.28 72.129-23.219 7.75 1.8125-2.75-38.594 1.4375-5.7187 22.156 13.594 22.844 22.687-34.281 40.875 29.281 21.438-22.125-23.594-5-9.2813-19.312zm39.281 35-4.0313 19.344c-3.7485-2.3159-7.3553-4.4484-8.8125-5.0312l7.2188 12.75-1.0625 5.2188-16.156-13.688-16.438 20.719 13.594 15 6.4062-3.8125v9.5l-4.2812 10v15.875l-18.562-7.2812-2.875 12.844 20.719 20 22.156-17.125-15.688-6.1562 20.688-19.562-18.156-20.469 12.562-7.5 1.3125 15.094 8.5625-29.281-4.375-2.8125 17.938-19.312-20.719-4.3125zm-74.281 6.4375-0.7187 15 29.312 11.438 1.4062-15-30-11.438zm-44.281 2.875-10 30.688 11.438-4.5625-5 27.438 12.594 5.125-6.875 15.594 17.844 18.562 1.75-9.125 8.25 0.5625 16.437 20-12.875-39.281-10.938 14.25 3.8125-19.969-10.719-15.719-2.3437 5.2812-9.875-23.531 4.375-1.75 6.4062 14.281 20.719-26.438-26.781 5.0938-2.5-4.375 15.719-7.125-21.438-5zm114.91 21.25 0.0938 0.15625 0.4062 4.5625-2.7187-2.3125 2.2187-2.4062zm-75.625 10.156-10 24.281 17.156 7.875 19.281-12.156-26.438-20z" fill="url(#d)"/> <path d="m851.01 66.429v18.562l20 8.5938 12.844-12.875-32.844-14.281zm64.281 4.2812-24.281 37.156 18.562 5.7188 11.438-11.438-7.1563-12.875 1.4375-18.562zm-82.875 24.281-24.281 25.719 35.719 20 8.5625-32.844-12.844-11.438-7.1562-1.4375zm34.313 22.875-1.4375 15.719-8.5625 12.844 17.125 5.7188 8.5625-34.281h-15.688zm-60 27.125-8.5938 17.156 11.438 22.844 28.562 2.875v-18.594l-31.406-24.281zm117.13 1.4375-37.125 12.844 35.688 22.875 1.4375-35.719zm-42.844 17.156-22.875 21.406-25.719 37.156 44.313-11.438 4.2813-47.125z" fill="url(#c)"/> </g> </g> <path d="m266.25 108.72c-29.897 15.365-65.426 22.158-102.42 17.347-83.405-10.847-145.6-76.856-148.34-152.55l179.57-7.2219c2.4664 0.10179 7.3475-1.0694 7.3475-1.0694s10.504-2.3376 15.989-2.1113c32.183 1.3282 48.842 64.971 47.86 145.61z" fill="url(#o)"/> <path d="m291.08 126.58c-3.3314 80.722-24.814 146.54-50.188 154.6-25.459-1.7105-43.207-72.377-39.66-158.31s27.056-154.87 52.569-154.48c24.624 10.127 40.611 77.464 37.28 158.19z" fill="url(#p)"/> <path d="m291.41 126.6c-3.5165 85.207-25.808 153.57-49.755 152.59-0.11328-0.00467-0.22208-0.03197-0.33504-0.03972 23.706-8.0131 43.907-73.005 47.194-152.67s-11.49-146.07-34.455-156.01c0.11321 0.00158 0.22389-0.01666 0.33717-0.01198 23.947 0.98829 40.53 70.935 37.014 156.14z" fill="url(#q)"/> <path d="m253.06-35.454-0.19993 5.955c0.39674-0.03237 0.79206-0.04814 1.1898-0.0426 22.966 9.9392 37.751 76.345 34.463 156.01s-23.499 144.66-47.206 152.68c-1.1327-0.07778-2.3549-0.32066-3.4528-0.70197l-0.29901 6.3456c0.72486 0.14865 1.5686 0.1431 2.3067 0.17356 25.546 1.0543 49.248-69.859 52.898-158.29 3.6461-88.347-14.196-160.92-39.7-162.12z" fill="url(#f)"/> <g transform="matrix(.7294 .79849 -.79849 .7294 -290.54 -674.55)"> <path d="m889.27 231.24-100.43-102.58c-0.24228 1.0326-0.41526 2.1034-0.5343 3.1978-2.588 8.425-6.012 16.717-7.703 25.35 0.66535 6.9332 10.591-0.92406 5.9074 8.0684-2.542 7.4292 0.47526 16.914 6.438 22.344-1.9352 9.1662 6.1747 25.532 24.033 35.572 4.4016-1.71 3.0987-12.494 6.7824-6.9959 5.5801 5.8798-5.1876 10.695-2.8485 17.681 7.1816 6.9503 20.084-2.9461 29-3.0957 8.7063-2.5937 16.822-7.2683 24.508-12.444 5.0013 7.7328 10.182 12.038 14.843 12.907z" fill="#818181" opacity=".25"/> <path d="m861.88 212.28-62.782-62.938-0.22461 20.33 17.084 36.638 16.128 6.9454 27.146 12.869 0.3353-15.668 2.3135 1.8244z" fill="url(#l)" opacity=".5"/> <path d="m893.16 225.03-22.871-22.224-1.0558 4.7404 20.709 19.974 3.2176-2.4899zm-42.575-41.401-19.063-18.51-6.5744 15.972 17.151 7.8856 8.4863-5.3472zm-32.152-31.219-11.406-11.081-3.159 0.59047-2.4869-4.3824 1.1963-0.54818-8.1386-7.8884-8.7781 26.983 11.433-4.5319-4.9858 27.427 12.588 5.1372-6.8731 15.577 17.836 18.567 1.7573-9.1406 8.2447 0.57441 16.438 19.99-12.883-39.272-10.913 14.25 3.7934-19.951-10.719-15.747-2.3338 5.287-9.8886-23.516 4.3885-1.7715 6.3955 14.291 8.4946-10.844z" fill="url(#k)" opacity=".5"/> <path d="m851.34 191.59-2.5406 2.3604-25.72 37.168 44.311-11.433 0.92064-10.22-16.971-17.875zm-22.559-13.349-31.392-24.296-8.601 17.157 11.455 22.853 28.553 2.8626-0.01497-18.577z" fill="url(#j)" opacity=".5"/> <path transform="matrix(.64056 .66683 -.66683 .64056 825.3 -122.24)" d="m219.75 83.75c-4.1033 0.02826-7.72 6.0962-4.4375 12.156 0.54764 6.3071 6.6495 12.465 2.875 17.219-6.4982 7.221-15.671-3.5858-23.281-4.6875-7.8677 11.255-12.334 16.359-26.062 19.875-5.8749 5.3083-10.464 5.5566-2.0938 16.562-18.88 18.478-18.966 22.094 0.25 46.375 4.4938 0.63091 6.7926 5.3473 5.625 10.312-6.0472 1.7431-7.5532 5.3551-6.6562 9.375l161.69-3.0312c0.1259-1.2405 0.06621-2.5885-0.1875-4.0312 0.54664-8.1158 2.621-16.327 2-24.406-3.8668-10.282-19.065 8.8639-16.062-5.4375-2.2164-7.585 12.698-5.0954 7.2812-13.938-4.4164-5.7465-15.524-5.7492-20.312-11.281-6.7393-11.542-13.636-22.939-22.781-33.375-0.43127-7.5236 0.66531-15.883-2.2188-22.875-8.9615-6.3845-16.955 15.182-26 9.625-9.18-0.50853-19.132-7.1876-24.312-14.156-1.4604-3.0609-3.4474-4.2941-5.3125-4.2812z" fill="#818181"/> <path transform="matrix(.64056 .66683 -.66683 .64056 825.3 -122.24)" d="m260.69 107.97-37.75 23.156 3.875 11.188-33.312-7.3125-24.312 40.344 14.625 39.625 116.28-2.8125 2.7812-30.469-3.875-13.5-38.312-60.219z" fill="url(#i)"/> <path transform="matrix(.64056 .66683 -.66683 .64056 825.3 -122.24)" d="m271.41 96.281-18.906 12.938 12.062 17.625c-4.6147 1.1885-8.9537 2.3939-10.5 3.0938l15.344 3.9375 3.2812 4.75-22.781 2.3438 3.8438 28.344 21.875 0.625 1.8125-7.8438 7.4375 7.0938 4.5625 10.844 12.406 11.906-19.594 9 7.625 11.469 17.375-0.25 13.969-0.53125 3.25-30.094-16.562 7.625 0.25-30.781-29.562-1.1875 3.5625-15.406 12.75 10.281-16.406-28.625-5.4688 1.3125-1.625-28.469zm-32.031 9.9062-21.562 14.656-22.031-7.2188-11.344 23.906-0.78125-3.4688-27.812 31.188 13 21.062 28 6.5-9.75-43.375 53.469-9.9375-1.1875-33.312zm34.219 28.781 0.21875 0.03125 3.8438 3.0938-3.8438 0.40625-0.21875-3.5312zm-40.312 22.156-31.406 14.844 11.156 11.812 30.875-14.312-10.625-12.344zm-27.219 32.781-15.594 23.969 18.938-0.28125-3.3438-23.688zm-15.156 5.7812-19.969 12.969 2.9062 5.4688 13.344-0.21875-2.5-0.625 6.2188-17.594zm69.375 0.21875-35.406 5.6562 5.1562 11.719 26.75-0.375 3.5-17z" fill="url(#h)"/> <path transform="matrix(.64056 .66683 -.66683 .64056 825.3 -122.24)" d="m217.91 88.375 10.781 46.781 18.375-10.188-0.34375-17.5-15.406-4.0625-13.406-15.031zm-15.75 32-35.75 14.938 14.469 13.906 21.688-9.1562-0.40625-19.688zm81.219 18.062-17.781 38.562 44.562-10.688-26.781-27.875zm-53.312 10.906-11.75 12.25 11.188 12.875 3.5938 16.312 17.281-9.0625-20.312-32.375zm-30.281 15.906-18.531 1.4375-6.5 4.5 1.875 38.219 42.375-12.875-19.219-31.281zm64.875 19.438-0.40625 32.156 28.094-0.25-27.688-31.906z" fill="url(#g)"/> </g> <path d="m218.89-36.811c-25.086 1.1626-48.089 71.223-51.682 158.28-3.6498 88.436 14.128 161.09 39.674 162.14l30.762 1.2498 0.32381-6.4226c-21.937-7.6185-36.65-74.665-33.317-155.43 3.4414-83.388 24.859-150.6 48.217-152.51l0.30448-5.9564-0.07762 0.00109-32.989-1.348c-0.39916-0.01648-0.81826-0.02725-1.2164-0.00879z" fill="url(#r)"/> <path d="m251.9-35.438c-25.086 1.1626-48.115 71.224-51.708 158.28-3.5443 85.881 13.109 156.84 37.47 161.84l0.30048-6.2411c-21.937-7.6185-36.65-74.665-33.317-155.43 3.4414-83.388 24.859-150.6 48.217-152.51l0.30448-5.9564-0.07762 0.00109c-0.39916-0.01647-0.79202-0.00173-1.1902 0.01673z" fill="url(#f)"/> <path d="m108.09 59.042c-5.9755-7.8183-12.748-3.0663-12.748-3.0663l-48.345 42.347-40.891-43.205c0 1e-5 -6.0463-5.6963-13.062 1.204-6.7571 6.646-1.4239 13.033-1.4239 13.033l38.969 41.277-45.693 38.778c1e-5 -1e-5 -6.4884 5.1916-0.64581 13.11 5.6274 7.6263 12.708 3.2204 12.708 3.2204l48.149-40.605 44.023 45.752s6.3996 5.3351 13.044-1.4241c6.8981-7.0177 1.2073-13.077 1.2073-13.077l-41.867-43.559 46.15-40.691c3.8618-3.976 3.3077-8.8492 0.42561-13.091z" fill="#d52009" opacity=".8" stroke="#931a1a" stroke-width="4.3225"/> </g> </svg>